<svg width="44" height="44" viewBox="0 0 44 44" fill="none" xmlns="http://www.w3.org/2000/svg">
<circle cx="22" cy="22" r="22" fill="#FF708D"/>
<path d="M22 32C24.6522 32 27.1957 30.9464 29.0711 29.0711C30.9464 27.1957 32 24.6522 32 22C32 19.3478 30.9464 16.8043 29.0711 14.9289C27.1957 13.0536 24.6522 12 22 12C19.3478 12 16.8043 13.0536 14.9289 14.9289C13.0536 16.8043 12 19.3478 12 22C12 24.6522 13.0536 27.1957 14.9289 29.0711C16.8043 30.9464 19.3478 32 22 32ZM17.0662 17.345C17.1405 17.1971 17.2704 17.0848 17.4274 17.0325C17.5844 16.9803 17.7557 16.9924 17.9037 17.0662L20.4038 18.3162C20.4871 18.358 20.5601 18.4179 20.6173 18.4915C20.6745 18.5651 20.7145 18.6506 20.7344 18.7417C20.7543 18.8328 20.7536 18.9272 20.7323 19.0179C20.711 19.1087 20.6696 19.1935 20.6112 19.2663C20.7 19.5238 20.75 19.8162 20.75 20.125C20.75 21.16 20.19 22 19.5 22C18.81 22 18.25 21.16 18.25 20.125C18.25 19.615 18.3863 19.1525 18.6062 18.8138L17.345 18.1838C17.1971 18.1095 17.0848 17.9796 17.0325 17.8226C16.9803 17.6656 16.9924 17.4931 17.0662 17.345ZM17.3562 27.5412C17.2127 27.4584 17.108 27.3219 17.0651 27.1617C17.0222 27.0016 17.0446 26.831 17.1275 26.6875C17.6213 25.8322 18.3316 25.122 19.1869 24.6283C20.0422 24.1346 21.0124 23.8748 22 23.875C22.9876 23.8748 23.9578 24.1346 24.8131 24.6283C25.6684 25.122 26.3787 25.8322 26.8725 26.6875C26.9142 26.7586 26.9414 26.8373 26.9526 26.9189C26.9637 27.0006 26.9586 27.0837 26.9376 27.1633C26.9165 27.243 26.8799 27.3178 26.8298 27.3832C26.7797 27.4487 26.7172 27.5036 26.6458 27.5449C26.5744 27.5861 26.4956 27.6128 26.4139 27.6234C26.3321 27.634 26.2491 27.6284 26.1696 27.6068C26.09 27.5852 26.0155 27.548 25.9504 27.4975C25.8852 27.447 25.8307 27.3842 25.79 27.3125C25.4059 26.6472 24.8534 26.0949 24.1881 25.7109C23.5228 25.3269 22.7682 25.1248 22 25.125C21.2318 25.1248 20.4772 25.3269 19.8119 25.7109C19.1466 26.0949 18.5941 26.6472 18.21 27.3125C18.1271 27.456 17.9906 27.5608 17.8305 27.6037C17.6704 27.6466 17.4998 27.6241 17.3562 27.5412ZM24.5 22C23.81 22 23.25 21.16 23.25 20.125C23.25 19.8162 23.3 19.525 23.3875 19.2675C23.3294 19.1946 23.2882 19.1096 23.267 19.0188C23.2458 18.928 23.2451 18.8336 23.265 18.7425C23.2849 18.6514 23.3248 18.5659 23.3819 18.4921C23.439 18.4184 23.5118 18.3583 23.595 18.3162L26.095 17.0662C26.1685 17.0287 26.2486 17.0061 26.3308 16.9997C26.4131 16.9933 26.4958 17.0033 26.5741 17.029C26.6525 17.0547 26.725 17.0956 26.7875 17.1495C26.85 17.2034 26.9011 17.2691 26.9381 17.3428C26.975 17.4166 26.997 17.4969 27.0028 17.5792C27.0086 17.6615 26.998 17.7441 26.9717 17.8222C26.9453 17.9004 26.9038 17.9726 26.8495 18.0346C26.7951 18.0967 26.729 18.1474 26.655 18.1838L25.3938 18.8138C25.6138 19.1513 25.75 19.6137 25.75 20.125C25.75 21.16 25.19 22 24.5 22Z" fill="white"/>
</svg>
