<svg width="44" height="44" viewBox="0 0 44 44" fill="none" xmlns="http://www.w3.org/2000/svg">
<circle cx="22" cy="22" r="22" fill="#40E794"/>
<path fill-rule="evenodd" clip-rule="evenodd" d="M12 22C12 16.477 16.477 12 22 12C27.523 12 32 16.477 32 22C32 27.523 27.523 32 22 32C16.477 32 12 27.523 12 22ZM16.073 20.125C16.1725 19.8791 16.3655 19.6829 16.6097 19.5794C16.8539 19.4758 17.1291 19.4736 17.375 19.573C17.721 19.713 18.1 19.791 18.5 19.791C18.9 19.791 19.279 19.713 19.625 19.573C19.7469 19.5227 19.8776 19.497 20.0095 19.4975C20.1414 19.4979 20.2719 19.5244 20.3935 19.5755C20.5151 19.6265 20.6254 19.7012 20.718 19.795C20.8107 19.8889 20.8838 20.0002 20.9333 20.1224C20.9828 20.2447 21.0076 20.3756 21.0062 20.5074C21.0049 20.6393 20.9775 20.7697 20.9256 20.8909C20.8737 21.0122 20.7984 21.122 20.7039 21.214C20.6094 21.306 20.4976 21.3784 20.375 21.427C19.7792 21.6677 19.1426 21.7913 18.5 21.791C17.8574 21.7913 17.2208 21.6677 16.625 21.427C16.3791 21.3275 16.1829 21.1345 16.0794 20.8903C15.9758 20.6461 15.9736 20.3709 16.073 20.125ZM24.375 19.573C24.2531 19.5227 24.1224 19.497 23.9905 19.4975C23.8586 19.4979 23.7281 19.5244 23.6065 19.5755C23.4849 19.6265 23.3746 19.7012 23.282 19.795C23.1893 19.8889 23.1162 20.0002 23.0667 20.1224C23.0172 20.2447 22.9924 20.3756 22.9938 20.5074C22.9951 20.6393 23.0225 20.7697 23.0744 20.8909C23.1263 21.0122 23.2016 21.122 23.2961 21.214C23.3906 21.306 23.5024 21.3784 23.625 21.427C24.8277 21.9135 26.1723 21.9135 27.375 21.427C27.4976 21.3784 27.6094 21.306 27.7039 21.214C27.7984 21.122 27.8737 21.0122 27.9256 20.8909C27.9775 20.7697 28.0049 20.6393 28.0062 20.5074C28.0076 20.3756 27.9828 20.2447 27.9333 20.1224C27.8838 20.0002 27.8107 19.8889 27.718 19.795C27.6254 19.7012 27.5151 19.6265 27.3935 19.5755C27.2719 19.5244 27.1414 19.4979 27.0095 19.4975C26.8776 19.497 26.7469 19.5227 26.625 19.573C26.279 19.713 25.9 19.791 25.5 19.791C25.1 19.791 24.721 19.713 24.375 19.573ZM24.501 26.366C24.7307 26.2331 24.8982 26.0145 24.9666 25.7581C25.0351 25.5017 24.9989 25.2287 24.866 24.999C24.7331 24.7693 24.5145 24.6018 24.2581 24.5334C24.0017 24.4649 23.7287 24.5011 23.499 24.634C23.059 24.889 22.549 25.035 22 25.035C21.4736 25.0356 20.9562 24.8976 20.5 24.635C20.2715 24.5154 20.0056 24.4888 19.7579 24.5607C19.5101 24.6325 19.2998 24.7973 19.1707 25.0206C19.0416 25.2439 19.0038 25.5085 19.0652 25.759C19.1266 26.0095 19.2823 26.2266 19.5 26.365C20.236 26.792 21.091 27.035 22 27.035C22.91 27.035 23.764 26.792 24.5 26.365" fill="white"/>
</svg>
