<svg width="44" height="44" viewBox="0 0 44 44" fill="none" xmlns="http://www.w3.org/2000/svg">
<circle cx="22" cy="22" r="22" fill="#F8D07A"/>
<path d="M12.25 22C12.25 16.615 16.615 12.25 22 12.25C27.385 12.25 31.75 16.615 31.75 22C31.75 27.385 27.385 31.75 22 31.75C16.615 31.75 12.25 27.385 12.25 22ZM18.398 24.553C18.3392 24.6321 18.2965 24.722 18.2725 24.8176C18.2484 24.9132 18.2434 25.0126 18.2578 25.1101C18.2722 25.2077 18.3057 25.3014 18.3564 25.3859C18.407 25.4705 18.4738 25.5443 18.553 25.603C19.5485 26.3465 20.7575 26.7488 22 26.75C23.2426 26.7485 24.4516 26.3459 25.447 25.602C25.6017 25.4816 25.7031 25.3055 25.7295 25.1113C25.756 24.9172 25.7054 24.7203 25.5886 24.563C25.4717 24.4056 25.2979 24.3003 25.1044 24.2694C24.9109 24.2386 24.7129 24.2848 24.553 24.398C23.8161 24.9498 22.9206 25.2486 22 25.25C21.0794 25.2486 20.1839 24.9498 19.447 24.398C19.3679 24.3392 19.278 24.2965 19.1824 24.2725C19.0868 24.2484 18.9874 24.2434 18.8899 24.2578C18.7923 24.2722 18.6986 24.3057 18.6141 24.3564C18.5295 24.407 18.4567 24.4738 18.398 24.553ZM25.25 20C25.25 19.8011 25.171 19.6103 25.0303 19.4697C24.8897 19.329 24.6989 19.25 24.5 19.25C24.3011 19.25 24.1103 19.329 23.9697 19.4697C23.829 19.6103 23.75 19.8011 23.75 20V20.5C23.75 20.6989 23.829 20.8897 23.9697 21.0303C24.1103 21.171 24.3011 21.25 24.5 21.25C24.6989 21.25 24.8897 21.171 25.0303 21.0303C25.171 20.8897 25.25 20.6989 25.25 20.5V20ZM19.5 19.25C19.3011 19.25 19.1103 19.329 18.9697 19.4697C18.829 19.6103 18.75 19.8011 18.75 20V20.5C18.75 20.6989 18.829 20.8897 18.9697 21.0303C19.1103 21.171 19.3011 21.25 19.5 21.25C19.6989 21.25 19.8897 21.171 20.0303 21.0303C20.171 20.8897 20.25 20.6989 20.25 20.5V20C20.25 19.8011 20.171 19.6103 20.0303 19.4697C19.8897 19.329 19.6989 19.25 19.5 19.25Z" fill="white"/>
</svg>
