<svg width="44" height="44" viewBox="0 0 44 44" fill="none" xmlns="http://www.w3.org/2000/svg">
<circle cx="22" cy="22" r="22" fill="#A1C1FF"/>
<path d="M12.25 22C12.25 27.385 16.615 31.75 22 31.75C27.385 31.75 31.75 27.385 31.75 22C31.75 16.615 27.385 12.25 22 12.25C16.615 12.25 12.25 16.615 12.25 22ZM18.553 25.398C19.5484 24.6541 20.7574 24.2515 22 24.25C23.285 24.25 24.474 24.677 25.447 25.398C25.6017 25.5184 25.7031 25.6945 25.7295 25.8887C25.756 26.0828 25.7054 26.2797 25.5886 26.437C25.4717 26.5944 25.2979 26.6997 25.1044 26.7306C24.9109 26.7614 24.7129 26.7152 24.553 26.602C23.8161 26.0502 22.9206 25.7514 22 25.75C21.0794 25.7514 20.1839 26.0502 19.447 26.602C19.3681 26.6634 19.2778 26.7084 19.1813 26.7343C19.0849 26.7603 18.9842 26.7667 18.8852 26.7532C18.7862 26.7397 18.6908 26.7066 18.6048 26.6558C18.5188 26.6049 18.4438 26.5374 18.3842 26.4572C18.3247 26.377 18.2817 26.2857 18.258 26.1886C18.2342 26.0916 18.23 25.9908 18.2457 25.8921C18.2615 25.7934 18.2967 25.6989 18.3495 25.614C18.4023 25.5292 18.4715 25.4557 18.553 25.398ZM20.25 20V20.5C20.25 20.6989 20.171 20.8897 20.0303 21.0303C19.8897 21.171 19.6989 21.25 19.5 21.25C19.3011 21.25 19.1103 21.171 18.9697 21.0303C18.829 20.8897 18.75 20.6989 18.75 20.5V20C18.75 19.8011 18.829 19.6103 18.9697 19.4697C19.1103 19.329 19.3011 19.25 19.5 19.25C19.6989 19.25 19.8897 19.329 20.0303 19.4697C20.171 19.6103 20.25 19.8011 20.25 20ZM24.5 19.25C24.6989 19.25 24.8897 19.329 25.0303 19.4697C25.171 19.6103 25.25 19.8011 25.25 20V20.5C25.25 20.6989 25.171 20.8897 25.0303 21.0303C24.8897 21.171 24.6989 21.25 24.5 21.25C24.3011 21.25 24.1103 21.171 23.9697 21.0303C23.829 20.8897 23.75 20.6989 23.75 20.5V20C23.75 19.8011 23.829 19.6103 23.9697 19.4697C24.1103 19.329 24.3011 19.25 24.5 19.25Z" fill="white"/>
</svg>
