<svg width="44" height="44" viewBox="0 0 44 44" fill="none" xmlns="http://www.w3.org/2000/svg">
<circle cx="22" cy="22" r="22" fill="#FF9E77"/>
<path d="M21.9999 31.5999C27.3024 31.5999 31.5999 27.3024 31.5999 21.9999C31.5999 16.6974 27.3024 12.3999 21.9999 12.3999C16.6974 12.3999 12.3999 16.6974 12.3999 21.9999C12.3999 27.3024 16.6974 31.5999 21.9999 31.5999ZM18.9999 18.9999C19.6637 18.9999 20.1999 19.5362 20.1999 20.1999C20.1999 20.8637 19.6637 21.3999 18.9999 21.3999C18.3362 21.3999 17.7999 20.8637 17.7999 20.1999C17.7999 19.5362 18.3362 18.9999 18.9999 18.9999ZM23.7999 20.1999C23.7999 19.5362 24.3362 18.9999 24.9999 18.9999C25.6637 18.9999 26.1999 19.5362 26.1999 20.1999C26.1999 20.8637 25.6637 21.3999 24.9999 21.3999C24.3362 21.3999 23.7999 20.8637 23.7999 20.1999ZM21.9999 23.1999C23.3237 23.1999 24.3999 24.2762 24.3999 25.5999C24.3999 26.9237 23.3237 27.9999 21.9999 27.9999C20.6762 27.9999 19.5999 26.9237 19.5999 25.5999C19.5999 24.2762 20.6762 23.1999 21.9999 23.1999Z" fill="white"/>
</svg>
